<svg width="80" height="80" viewBox="0 0 80 80" fill="none" xmlns="http://www.w3.org/2000/svg">
<circle cx="40" cy="40" r="40" fill="#0D62D1"/>
<g clip-path="url(#clip0_2590_6878)">
<path d="M40.4 29.0981L39.9696 29.2288L22.7821 34.9873L18.8744 36.2756L21.15 37.0044V49.0356C20.3291 49.5128 19.775 50.3831 19.775 51.4006C19.775 52.13 20.0647 52.8295 20.5804 53.3452C21.0962 53.8609 21.7956 54.1506 22.525 54.1506C23.2543 54.1506 23.9538 53.8609 24.4695 53.3452C24.9853 52.8295 25.275 52.13 25.275 51.4006C25.275 50.3831 24.7209 49.5128 23.9 49.0356V37.9531L26.65 38.8538V45.9006C26.65 47.0281 27.3375 47.9631 28.1542 48.6094C28.971 49.2515 29.9857 49.7053 31.204 50.1123C33.6432 50.9235 36.858 51.4006 40.4 51.4006C43.942 51.4006 47.1567 50.9249 49.596 50.1109C50.8142 49.7053 51.829 49.2515 52.6457 48.608C53.4625 47.9631 54.15 47.0281 54.15 45.9006V38.8538L58.0179 37.564L61.9256 36.2756L58.0165 34.9859L40.829 29.2288L40.4 29.0981ZM40.4 31.9788L53.2906 36.2756L40.4 40.5725L27.5094 36.2756L40.4 31.9788ZM29.4 39.7998L39.971 43.3225L40.4 43.4518L40.8304 43.3211L51.4 39.7984V45.9006C51.4 45.9144 51.4055 46.0739 50.9696 46.4163C50.5351 46.76 49.7555 47.1931 48.7352 47.5341C46.6975 48.212 43.6931 48.6506 40.4 48.6506C37.1069 48.6506 34.1025 48.2134 32.0634 47.5328C31.0459 47.1931 30.2649 46.7586 29.8304 46.4163C29.3931 46.0725 29.4 45.9144 29.4 45.9006V39.7998Z" fill="white"/>
</g>
<defs>
<clipPath id="clip0_2590_6878">
<rect width="44" height="44" fill="white" transform="translate(18.4 18.4006)"/>
</clipPath>
</defs>
</svg>
